<svg xmlns="http://www.w3.org/2000/svg" xmlns:xlink="http://www.w3.org/1999/xlink" width="500" zoomAndPan="magnify" viewBox="0 0 375 374.999991" height="500" preserveAspectRatio="xMidYMid meet" version="1.0"><path fill="#e5daa4" d="M 217.410156 153.125 C 217.410156 138.589844 207.152344 130.566406 189.136719 130.566406 L 155.996094 130.566406 L 155.996094 177.394531 L 183.941406 177.394531 C 205.511719 177.328125 217.410156 168.648438 217.410156 153.125 Z M 338.070312 144.707031 C 331.820312 124.382812 330.902344 99.453125 331.625 80.183594 C 332.347656 60.125 316.699219 41.707031 295.65625 41.707031 L 79.460938 41.707031 C 58.355469 41.707031 42.769531 60.1875 43.492188 80.183594 C 44.152344 99.453125 43.296875 124.382812 37.050781 144.707031 C 30.738281 165.09375 20.152344 177.984375 2.726562 179.628906 L 2.726562 198.375 C 20.085938 200.019531 30.738281 212.910156 37.050781 233.300781 C 43.296875 253.625 44.214844 278.550781 43.492188 297.820312 C 42.769531 317.882812 58.417969 336.296875 79.460938 336.296875 L 295.59375 336.296875 C 316.699219 336.296875 332.28125 317.816406 331.558594 297.820312 C 330.902344 278.550781 331.757812 253.625 338.003906 233.300781 C 344.316406 212.910156 354.902344 200.019531 372.261719 198.375 L 372.261719 179.628906 C 354.96875 177.984375 344.316406 165.09375 338.070312 144.707031 Z M 195.515625 267.371094 L 131.144531 267.371094 L 131.144531 110.636719 L 195.1875 110.636719 C 223.65625 110.636719 242.332031 126.027344 242.332031 149.703125 C 242.332031 166.34375 229.773438 181.207031 213.730469 183.773438 L 213.730469 184.628906 C 235.558594 186.996094 250.222656 202.125 250.222656 222.972656 C 250.222656 250.664062 229.640625 267.371094 195.515625 267.371094 Z M 188.941406 195.875 L 155.996094 195.875 L 155.996094 247.441406 L 190.386719 247.441406 C 212.875 247.441406 224.777344 238.429688 224.777344 221.460938 C 224.777344 204.558594 212.546875 195.875 188.941406 195.875 Z M 188.941406 195.875 " fill-opacity="1" fill-rule="nonzero"/></svg>