<svg xmlns="http://www.w3.org/2000/svg" xmlns:xlink="http://www.w3.org/1999/xlink" width="500" zoomAndPan="magnify" viewBox="0 0 375 374.999991" height="500" preserveAspectRatio="xMidYMid meet" version="1.0"><path fill="#e5daa4" d="M 40.929688 42.429688 L 40.929688 335.773438 L 334.273438 335.773438 L 334.273438 42.429688 Z M 198.078125 270.292969 C 198.078125 298.851562 181.210938 312.769531 156.792969 312.769531 C 134.742188 312.769531 121.941406 301.351562 115.445312 287.566406 L 137.890625 273.980469 C 142.21875 281.660156 145.503906 288.15625 154.953125 288.15625 C 162.8125 288.15625 169.265625 284.613281 169.265625 270.832031 L 169.265625 178.625 L 198.078125 178.625 Z M 263.132812 312.117188 C 237.535156 312.117188 220.996094 300.566406 212.921875 284.613281 L 235.402344 271.605469 C 241.292969 281.257812 248.988281 287.6875 262.574219 287.6875 C 273.992188 287.6875 280.625 282.632812 280.625 274.753906 C 280.625 265.304688 273.796875 261.960938 261.191406 256.421875 L 254.304688 253.460938 C 234.410156 245 221.226562 234.367188 221.226562 211.914062 C 221.226562 191.242188 236.972656 176.144531 261.585938 176.144531 C 279.113281 176.144531 291.707031 181.589844 300.773438 197.542969 L 279.269531 211.363281 C 274.542969 202.898438 269.449219 199.578125 261.554688 199.578125 C 253.480469 199.578125 248.359375 204.699219 248.359375 211.363281 C 248.359375 219.632812 253.480469 222.980469 265.292969 228.101562 L 272.179688 231.054688 C 295.613281 241.097656 308.808594 251.351562 308.808594 274.375 C 308.816406 299.191406 289.324219 312.117188 263.132812 312.117188 Z M 263.132812 312.117188 " fill-opacity="1" fill-rule="nonzero"/></svg>