<svg xmlns="http://www.w3.org/2000/svg" xmlns:xlink="http://www.w3.org/1999/xlink" width="500" zoomAndPan="magnify" viewBox="0 0 375 374.999991" height="500" preserveAspectRatio="xMidYMid meet" version="1.0"><defs><clipPath id="811780fd85"><path d="M 56.480469 41 L 318 41 L 318 337 L 56.480469 337 Z M 56.480469 41 " clip-rule="nonzero"/></clipPath></defs><g clip-path="url(#811780fd85)"><path fill="#e5daa4" d="M 187.355469 336.175781 C 183.441406 336.175781 179.46875 335.125 176.023438 333.136719 L 139.972656 311.804688 C 134.597656 308.765625 137.226562 307.714844 138.980469 307.128906 C 146.167969 304.617188 147.628906 304.089844 155.28125 299.707031 C 156.097656 299.238281 157.152344 299.414062 157.96875 299.941406 L 185.664062 316.363281 C 186.65625 316.949219 188.058594 316.949219 188.992188 316.363281 L 296.90625 254.058594 C 297.898438 253.472656 298.539062 252.304688 298.539062 251.136719 L 298.539062 126.527344 C 298.539062 125.300781 297.898438 124.1875 296.847656 123.546875 L 188.992188 61.300781 C 188 60.714844 186.65625 60.714844 185.664062 61.300781 L 77.867188 123.605469 C 76.816406 124.1875 76.171875 125.359375 76.171875 126.585938 L 76.171875 251.136719 C 76.171875 252.304688 76.816406 253.472656 77.867188 254 L 107.429688 271.066406 C 123.496094 279.074219 133.3125 269.664062 133.3125 260.136719 L 133.3125 137.164062 C 133.3125 135.410156 134.714844 134.066406 136.46875 134.066406 L 150.140625 134.066406 C 151.832031 134.066406 153.292969 135.410156 153.292969 137.164062 L 153.292969 260.195312 C 153.292969 281.585938 141.609375 293.859375 121.335938 293.859375 C 115.085938 293.859375 110.175781 293.859375 96.503906 287.082031 L 68.226562 270.773438 C 61.214844 266.742188 56.890625 259.203125 56.890625 251.078125 L 56.890625 126.527344 C 56.890625 118.460938 61.214844 110.863281 68.226562 106.828125 L 176.023438 44.523438 C 182.859375 40.667969 191.914062 40.667969 198.691406 44.523438 L 306.601562 106.886719 C 313.613281 110.921875 317.9375 118.460938 317.9375 126.585938 L 317.9375 251.136719 C 317.9375 259.203125 313.613281 266.742188 306.601562 270.832031 L 198.691406 333.136719 C 195.242188 335.125 191.328125 336.175781 187.355469 336.175781 Z M 274.46875 213.378906 C 274.46875 190.058594 258.695312 183.863281 225.566406 179.480469 C 192.03125 175.039062 188.640625 172.757812 188.640625 164.925781 C 188.640625 158.4375 191.503906 149.789062 216.335938 149.789062 C 238.480469 149.789062 246.660156 154.582031 250.046875 169.542969 C 250.339844 170.945312 251.625 172 253.085938 172 L 267.109375 172 C 267.984375 172 268.800781 171.648438 269.386719 171.003906 C 269.96875 170.363281 270.261719 169.484375 270.203125 168.609375 C 268.042969 142.832031 250.921875 130.851562 216.335938 130.851562 C 185.546875 130.851562 167.199219 143.828125 167.199219 165.628906 C 167.199219 189.242188 185.488281 195.785156 214.992188 198.707031 C 250.339844 202.15625 253.085938 207.359375 253.085938 214.3125 C 253.085938 226.355469 243.386719 231.496094 220.660156 231.496094 C 192.089844 231.496094 185.835938 224.308594 183.734375 210.105469 C 183.5 208.585938 182.214844 207.476562 180.636719 207.476562 L 166.675781 207.476562 C 164.921875 207.476562 163.578125 208.878906 163.578125 210.574219 C 163.578125 228.75 173.453125 250.433594 220.71875 250.433594 C 254.839844 250.375 274.46875 236.875 274.46875 213.378906 Z M 274.46875 213.378906 " fill-opacity="1" fill-rule="nonzero"/></g></svg>