<svg xmlns="http://www.w3.org/2000/svg" xmlns:xlink="http://www.w3.org/1999/xlink" width="500" zoomAndPan="magnify" viewBox="0 0 375 374.999991" height="500" preserveAspectRatio="xMidYMid meet" version="1.0"><defs><clipPath id="c1a8fdda8c"><path d="M 22.03125 41 L 352.78125 41 L 352.78125 337 L 22.03125 337 Z M 22.03125 41 " clip-rule="nonzero"/></clipPath></defs><g clip-path="url(#c1a8fdda8c)"><path fill="#e5daa4" d="M 187.40625 159.425781 C 186.441406 159.425781 185.476562 159.472656 184.515625 159.570312 C 183.554688 159.664062 182.601562 159.804688 181.652344 159.992188 C 180.707031 160.183594 179.773438 160.417969 178.847656 160.695312 C 177.925781 160.976562 177.015625 161.300781 176.125 161.671875 C 175.230469 162.039062 174.359375 162.453125 173.507812 162.90625 C 172.65625 163.363281 171.832031 163.859375 171.027344 164.394531 C 170.226562 164.929688 169.449219 165.503906 168.703125 166.117188 C 167.957031 166.730469 167.242188 167.378906 166.5625 168.0625 C 165.878906 168.742188 165.230469 169.457031 164.617188 170.203125 C 164.003906 170.949219 163.429688 171.726562 162.894531 172.527344 C 162.359375 173.332031 161.863281 174.15625 161.40625 175.007812 C 160.953125 175.859375 160.539062 176.730469 160.171875 177.625 C 159.800781 178.515625 159.476562 179.425781 159.195312 180.347656 C 158.917969 181.273438 158.683594 182.207031 158.492188 183.152344 C 158.304688 184.101562 158.164062 185.054688 158.070312 186.015625 C 157.972656 186.976562 157.925781 187.941406 157.925781 188.90625 C 157.925781 189.871094 157.972656 190.832031 158.070312 191.792969 C 158.164062 192.753906 158.304688 193.710938 158.492188 194.65625 C 158.683594 195.601562 158.917969 196.539062 159.195312 197.460938 C 159.476562 198.386719 159.800781 199.292969 160.171875 200.1875 C 160.539062 201.078125 160.953125 201.949219 161.40625 202.800781 C 161.863281 203.652344 162.359375 204.480469 162.894531 205.28125 C 163.429688 206.085938 164.003906 206.859375 164.617188 207.605469 C 165.230469 208.351562 165.878906 209.066406 166.5625 209.75 C 167.242188 210.433594 167.957031 211.078125 168.703125 211.691406 C 169.449219 212.304688 170.226562 212.878906 171.027344 213.414062 C 171.832031 213.953125 172.65625 214.449219 173.507812 214.902344 C 174.359375 215.359375 175.230469 215.769531 176.125 216.140625 C 177.015625 216.507812 177.925781 216.832031 178.847656 217.113281 C 179.773438 217.394531 180.707031 217.628906 181.652344 217.816406 C 182.601562 218.003906 183.554688 218.148438 184.515625 218.242188 C 185.476562 218.335938 186.441406 218.382812 187.40625 218.382812 C 188.371094 218.382812 189.332031 218.335938 190.292969 218.242188 C 191.253906 218.148438 192.210938 218.003906 193.15625 217.816406 C 194.101562 217.628906 195.039062 217.394531 195.960938 217.113281 C 196.886719 216.832031 197.792969 216.507812 198.6875 216.140625 C 199.578125 215.769531 200.449219 215.359375 201.300781 214.902344 C 202.152344 214.449219 202.980469 213.953125 203.78125 213.414062 C 204.585938 212.878906 205.359375 212.304688 206.105469 211.691406 C 206.851562 211.078125 207.566406 210.433594 208.25 209.75 C 208.933594 209.066406 209.578125 208.351562 210.191406 207.605469 C 210.804688 206.859375 211.378906 206.085938 211.914062 205.28125 C 212.453125 204.480469 212.949219 203.652344 213.402344 202.800781 C 213.859375 201.949219 214.269531 201.078125 214.640625 200.1875 C 215.007812 199.292969 215.332031 198.386719 215.613281 197.460938 C 215.894531 196.539062 216.128906 195.601562 216.316406 194.65625 C 216.503906 193.710938 216.648438 192.753906 216.742188 191.792969 C 216.835938 190.832031 216.882812 189.871094 216.882812 188.90625 C 216.882812 187.941406 216.835938 186.976562 216.742188 186.015625 C 216.648438 185.054688 216.503906 184.101562 216.316406 183.152344 C 216.128906 182.207031 215.894531 181.273438 215.613281 180.347656 C 215.332031 179.425781 215.007812 178.515625 214.640625 177.625 C 214.269531 176.730469 213.859375 175.859375 213.402344 175.007812 C 212.949219 174.15625 212.453125 173.332031 211.914062 172.527344 C 211.378906 171.726562 210.804688 170.949219 210.191406 170.203125 C 209.578125 169.457031 208.933594 168.742188 208.25 168.0625 C 207.566406 167.378906 206.851562 166.730469 206.105469 166.117188 C 205.359375 165.503906 204.585938 164.929688 203.78125 164.394531 C 202.980469 163.859375 202.152344 163.363281 201.300781 162.90625 C 200.449219 162.453125 199.578125 162.039062 198.6875 161.671875 C 197.792969 161.300781 196.886719 160.976562 195.960938 160.695312 C 195.039062 160.417969 194.101562 160.183594 193.15625 159.992188 C 192.210938 159.804688 191.253906 159.664062 190.292969 159.570312 C 189.332031 159.472656 188.371094 159.425781 187.40625 159.425781 Z M 104.828125 247.542969 L 98.324219 245.890625 C 49.839844 233.640625 22.03125 212.84375 22.03125 188.851562 C 22.03125 164.855469 49.839844 144.0625 98.324219 131.808594 L 104.828125 130.167969 L 106.660156 136.617188 C 111.582031 153.566406 117.839844 170.003906 125.445312 185.929688 L 126.835938 188.863281 L 125.445312 191.800781 C 117.828125 207.71875 111.566406 224.15625 106.660156 241.109375 Z M 95.304688 146.871094 C 58.453125 157.222656 35.839844 173.058594 35.839844 188.851562 C 35.839844 204.628906 58.453125 220.464844 95.304688 230.828125 C 99.816406 216.480469 105.246094 202.484375 111.59375 188.851562 C 105.238281 175.214844 99.808594 161.222656 95.304688 146.871094 Z M 269.980469 247.542969 L 268.148438 241.082031 C 263.234375 224.132812 256.96875 207.703125 249.351562 191.785156 L 247.960938 188.851562 L 249.351562 185.914062 C 256.964844 169.992188 263.230469 153.554688 268.148438 136.605469 L 269.980469 130.15625 L 276.5 131.796875 C 324.96875 144.046875 352.78125 164.84375 352.78125 188.851562 C 352.78125 212.855469 324.96875 233.640625 276.5 245.890625 Z M 263.214844 188.851562 C 269.832031 203.167969 275.300781 217.238281 279.503906 230.828125 C 316.371094 220.464844 338.972656 204.628906 338.972656 188.851562 C 338.972656 173.058594 316.355469 157.234375 279.503906 146.871094 C 275 161.222656 269.570312 175.214844 263.214844 188.851562 Z M 95.207031 146.804688 L 93.375 140.367188 C 79.746094 92.324219 83.878906 57.902344 104.71875 45.882812 C 125.15625 34.085938 157.96875 48.019531 192.351562 83.3125 L 197.039062 88.121094 L 192.351562 92.933594 C 180.113281 105.65625 168.988281 119.285156 158.972656 133.820312 L 157.113281 136.480469 L 153.875 136.757812 C 136.261719 138.144531 118.871094 140.949219 101.714844 145.164062 Z M 121.335938 55.433594 C 117.644531 55.433594 114.378906 56.234375 111.621094 57.816406 C 97.921875 65.714844 95.496094 93.167969 104.9375 130.210938 C 119.640625 126.941406 134.492188 124.640625 149.492188 123.304688 C 158.148438 111 167.574219 99.3125 177.773438 88.246094 C 156.273438 67.3125 135.917969 55.433594 121.335938 55.433594 Z M 253.484375 336.046875 C 253.472656 336.046875 253.472656 336.046875 253.484375 336.046875 C 233.847656 336.046875 208.628906 321.261719 182.457031 294.386719 L 177.773438 289.578125 L 182.457031 284.765625 C 194.691406 272.042969 205.8125 258.40625 215.820312 243.863281 L 217.683594 241.203125 L 220.90625 240.929688 C 238.53125 239.546875 255.929688 236.75 273.097656 232.535156 L 279.601562 230.898438 L 281.449219 237.347656 C 295.050781 285.359375 290.929688 319.800781 270.09375 331.804688 C 267.5625 333.234375 264.886719 334.308594 262.070312 335.027344 C 259.253906 335.75 256.394531 336.089844 253.484375 336.046875 Z M 197.039062 289.453125 C 218.535156 310.386719 238.890625 322.265625 253.472656 322.265625 L 253.484375 322.265625 C 257.164062 322.265625 260.445312 321.46875 263.1875 319.882812 C 276.886719 311.984375 279.324219 284.519531 269.871094 247.476562 C 255.167969 250.75 240.3125 253.050781 225.304688 254.378906 C 216.65625 266.695312 207.234375 278.386719 197.039062 289.453125 Z M 279.601562 146.804688 L 273.097656 145.164062 C 255.929688 140.933594 238.535156 138.132812 220.90625 136.757812 L 217.683594 136.480469 L 215.820312 133.820312 C 205.820312 119.28125 194.699219 105.648438 182.457031 92.933594 L 177.773438 88.121094 L 182.457031 83.3125 C 216.828125 48.035156 249.628906 34.101562 270.09375 45.882812 C 290.929688 57.902344 295.0625 92.324219 281.449219 140.355469 Z M 225.304688 123.304688 C 241.042969 124.738281 255.996094 127.070312 269.871094 130.210938 C 279.324219 93.167969 276.886719 65.714844 263.1875 57.816406 C 249.574219 49.949219 223.980469 62.007812 197.039062 88.246094 C 207.230469 99.3125 216.652344 111 225.304688 123.304688 Z M 121.335938 336.046875 C 118.429688 336.089844 115.5625 335.75 112.746094 335.03125 C 109.925781 334.3125 107.25 333.234375 104.71875 331.804688 C 83.878906 319.800781 79.746094 285.375 93.375 237.347656 L 95.195312 230.898438 L 101.699219 232.535156 C 117.617188 236.546875 135.175781 239.371094 153.863281 240.929688 L 157.101562 241.203125 L 158.945312 243.863281 C 168.960938 258.40625 180.089844 272.039062 192.324219 284.765625 L 197.011719 289.578125 L 192.324219 294.386719 C 166.167969 321.261719 140.949219 336.046875 121.335938 336.046875 Z M 104.9375 247.476562 C 95.484375 284.519531 97.921875 311.984375 111.621094 319.882812 C 125.222656 327.640625 150.800781 315.679688 177.773438 289.453125 C 167.578125 278.378906 158.152344 266.6875 149.492188 254.378906 C 134.492188 253.054688 119.640625 250.75 104.9375 247.476562 Z M 187.40625 256.128906 C 176.0625 256.128906 164.402344 255.632812 152.730469 254.667969 L 149.492188 254.394531 L 147.632812 251.734375 C 141.027344 242.242188 134.824219 232.496094 129.027344 222.488281 C 123.246094 212.476562 117.890625 202.242188 112.957031 191.785156 L 111.582031 188.851562 L 112.957031 185.914062 C 117.890625 175.457031 123.246094 165.222656 129.027344 155.210938 C 134.734375 145.34375 141.003906 135.503906 147.632812 125.964844 L 149.492188 123.304688 L 152.730469 123.03125 C 175.851562 121.070312 198.972656 121.070312 222.09375 123.03125 L 225.316406 123.304688 L 227.164062 125.964844 C 240.40625 144.976562 251.96875 164.960938 261.851562 185.914062 L 263.242188 188.851562 L 261.851562 191.785156 C 251.992188 212.753906 240.429688 232.734375 227.164062 251.734375 L 225.316406 254.394531 L 222.09375 254.667969 C 210.417969 255.632812 198.746094 256.128906 187.40625 256.128906 Z M 157.128906 241.191406 C 177.523438 242.722656 197.285156 242.722656 217.695312 241.191406 C 229.109375 224.507812 239.195312 207.0625 247.960938 188.851562 C 239.210938 170.625 229.117188 153.179688 217.683594 136.507812 C 197.496094 134.976562 177.3125 134.976562 157.128906 136.507812 C 145.6875 153.175781 135.59375 170.625 126.851562 188.851562 C 135.625 207.058594 145.71875 224.507812 157.128906 241.191406 Z M 157.128906 241.191406 " fill-opacity="1" fill-rule="nonzero"/></g></svg>